<?xml version="1.0" encoding="UTF-8" standalone="no"?>
<svg
   xmlns:dc="http://purl.org/dc/elements/1.1/"
   xmlns:cc="http://creativecommons.org/ns#"
   xmlns:rdf="http://www.w3.org/1999/02/22-rdf-syntax-ns#"
   xmlns:svg="http://www.w3.org/2000/svg"
   xmlns="http://www.w3.org/2000/svg"
   xmlns:sodipodi="http://sodipodi.sourceforge.net/DTD/sodipodi-0.dtd"
   xmlns:inkscape="http://www.inkscape.org/namespaces/inkscape"
   inkscape:version="1.0 (6e3e5246a0, 2020-05-07)"
   sodipodi:docname="alert.svg"
   xml:space="preserve"
   style="enable-background:new 0 0 512.001 512.001;"
   viewBox="0 0 512.001 512.001"
   y="0px"
   x="0px"
   id="Capa_1"
   version="1.1"><metadata
   id="metadata55"><rdf:RDF><cc:Work
       rdf:about=""><dc:format>image/svg+xml</dc:format><dc:type
         rdf:resource="http://purl.org/dc/dcmitype/StillImage" /><dc:title></dc:title></cc:Work></rdf:RDF></metadata><defs
   id="defs53" /><sodipodi:namedview
   inkscape:current-layer="Capa_1"
   inkscape:window-maximized="1"
   inkscape:window-y="0"
   inkscape:window-x="0"
   inkscape:cy="256.00049"
   inkscape:cx="256.00049"
   inkscape:zoom="1.4355441"
   showgrid="false"
   id="namedview51"
   inkscape:window-height="1017"
   inkscape:window-width="1920"
   inkscape:pageshadow="2"
   inkscape:pageopacity="0"
   guidetolerance="10"
   gridtolerance="10"
   objecttolerance="10"
   borderopacity="1"
   bordercolor="#666666"
   pagecolor="#ffffff" />
<g
   id="g6">
	<g
   id="g4">
		<path
   style="fill:#ffffff"
   id="path2"
   d="M503.839,395.379l-195.7-338.962C297.257,37.569,277.766,26.315,256,26.315c-21.765,0-41.257,11.254-52.139,30.102    L8.162,395.378c-10.883,18.85-10.883,41.356,0,60.205c10.883,18.849,30.373,30.102,52.139,30.102h391.398    c21.765,0,41.256-11.254,52.14-30.101C514.722,436.734,514.722,414.228,503.839,395.379z M477.861,440.586    c-5.461,9.458-15.241,15.104-26.162,15.104H60.301c-10.922,0-20.702-5.646-26.162-15.104c-5.46-9.458-5.46-20.75,0-30.208    L229.84,71.416c5.46-9.458,15.24-15.104,26.161-15.104c10.92,0,20.701,5.646,26.161,15.104l195.7,338.962    C483.321,419.836,483.321,431.128,477.861,440.586z" />
	</g>
</g>
<g
   id="g12">
	<g
   id="g10">
		<rect
   style="fill:#ffffff"
   id="rect8"
   height="149.982"
   width="29.996"
   y="176.01"
   x="241.001" />
	</g>
</g>
<g
   id="g18">
	<g
   id="g16">
		<path
   style="fill:#ffffff"
   id="path14"
   d="M256,355.99c-11.027,0-19.998,8.971-19.998,19.998s8.971,19.998,19.998,19.998c11.026,0,19.998-8.971,19.998-19.998    S267.027,355.99,256,355.99z" />
	</g>
</g>
<g
   id="g20">
</g>
<g
   id="g22">
</g>
<g
   id="g24">
</g>
<g
   id="g26">
</g>
<g
   id="g28">
</g>
<g
   id="g30">
</g>
<g
   id="g32">
</g>
<g
   id="g34">
</g>
<g
   id="g36">
</g>
<g
   id="g38">
</g>
<g
   id="g40">
</g>
<g
   id="g42">
</g>
<g
   id="g44">
</g>
<g
   id="g46">
</g>
<g
   id="g48">
</g>
</svg>
