<?xml version="1.0" encoding="UTF-8" standalone="no"?>
<svg
   xmlns:dc="http://purl.org/dc/elements/1.1/"
   xmlns:cc="http://creativecommons.org/ns#"
   xmlns:rdf="http://www.w3.org/1999/02/22-rdf-syntax-ns#"
   xmlns:svg="http://www.w3.org/2000/svg"
   xmlns="http://www.w3.org/2000/svg"
   xmlns:sodipodi="http://sodipodi.sourceforge.net/DTD/sodipodi-0.dtd"
   xmlns:inkscape="http://www.inkscape.org/namespaces/inkscape"
   inkscape:version="1.0 (6e3e5246a0, 2020-05-07)"
   sodipodi:docname="Frepik Logo.svg"
   xml:space="preserve"
   style="enable-background:new 0 0 489.556 489.556;"
   viewBox="0 0 489.556 489.556"
   y="0px"
   x="0px"
   id="Capa_1"
   version="1.1"><metadata
   id="metadata47"><rdf:RDF><cc:Work
       rdf:about=""><dc:format>image/svg+xml</dc:format><dc:type
         rdf:resource="http://purl.org/dc/dcmitype/StillImage" /></cc:Work></rdf:RDF></metadata><defs
   id="defs45" /><sodipodi:namedview
   inkscape:current-layer="Capa_1"
   inkscape:window-maximized="1"
   inkscape:window-y="0"
   inkscape:window-x="0"
   inkscape:cy="244.778"
   inkscape:cx="244.778"
   inkscape:zoom="1.5013604"
   showgrid="false"
   id="namedview43"
   inkscape:window-height="1017"
   inkscape:window-width="1920"
   inkscape:pageshadow="2"
   inkscape:pageopacity="0"
   guidetolerance="10"
   gridtolerance="10"
   objecttolerance="10"
   borderopacity="1"
   bordercolor="#666666"
   pagecolor="#ffffff" />
<path
   id="path2"
   d="M191.809,118.41c20.576-6.858,38.46-11.031,54.65-12.742c15.865-1.68,27.796-2.46,37.545-2.46  c10.43,0,18.139,0.887,26.979,2.326l2.502-15.877c0,0-24.408-7.502-56.461-4.881l-2.516-8.641  c9.951-2.108,17.42-10.939,17.42-21.519c0-12.15-9.851-22-22-22c-12.151,0-22.001,9.851-22.001,22  c0,10.577,7.466,19.409,17.415,21.518l2.8,9.614c-34.029,4.701-61.128,17.997-61.128,17.997L191.809,118.41z"
   style="fill:#ffffff" />
<path
   id="path4"
   d="M95.255,183.406c0.795-1.014,1.577-1.982,2.352-2.923l-6.489-4.723l-10.174-7.44  c-0.599,0.819-16.567,15.503-29.183,42.683c-0.548-0.859-1.169-1.692-1.883-2.479c-3.782-4.172-9.079-6.244-15.781-6.13  c-0.1,0.001-0.198,0.002-0.295,0.002c-4.19,0-7.027-1.418-8.915-3.085c1.861-2.369,2.981-5.349,2.981-8.596  c0-7.694-6.239-13.934-13.934-13.934C6.238,176.781,0,183.02,0,190.715c0,7.696,6.238,13.934,13.934,13.934  c1.194,0,2.346-0.166,3.452-0.448c3.432,3.813,8.883,7.135,16.848,6.991c4.09-0.066,7.066,0.988,9.1,3.216  c2.313,2.533,3.087,6.165,3.318,8.904c-0.013,0.035-0.026,0.068-0.04,0.104c-9.097,24.787-6.479,55.615-6.479,55.615l22.004,0.877  c0.447-11.232,2.063-30.862,7.741-46.477c10.971-30.156,24.681-49.079,25.259-49.87L95.255,183.406z"
   style="fill:#ffffff" />
<path
   id="path6"
   d="M475.621,121.629c-7.695,0-13.934,6.237-13.934,13.934c0,1.196,0.167,2.351,0.451,3.458  c-3.805,3.434-7.118,8.884-6.994,16.84c0.064,4.089-0.987,7.066-3.215,9.101c-1.744,1.593-4.01,2.454-6.146,2.913  c-16.414-22.916-36.598-36.961-36.598-36.961l-15.804,16.951c11.953,10.889,24.138,24.485,36.018,41.468  c8.19,11.708,16.616,26.866,23.657,41.938l21.338-10.1c0,0-9.74-24.077-23.466-45.649c2.391-0.85,4.795-2.121,6.886-4.017  c4.172-3.781,6.235-9.091,6.13-15.781c-0.068-4.353,1.378-7.278,3.083-9.209c2.369,1.861,5.348,2.982,8.595,2.982  c7.695,0,13.934-6.239,13.934-13.934C489.554,127.866,483.316,121.629,475.621,121.629z"
   style="fill:#ffffff" />
<path
   id="path8"
   d="M420.261,313.313c-29.35,14.289-77.678,33.178-141.242,42.027  c-24.956,3.475-49.166,4.774-71.406,4.774c-28.953,0-54.443-2.201-74.079-4.67C111.124,352.625,93,349.161,83,346.758  c0,0,0-0.001,0-0.001c0-0.004-0.168-0.009-0.189-0.013c2.616,8.292,5.713,16.328,9.374,24.011c0.022,0.047,0.01,0.096,0.033,0.143  c0.09,0.189,0.167,0.378,0.259,0.567c0.449,0.937,0.899,1.869,1.365,2.799c0.443,0.88,0.891,1.756,1.348,2.628  c0.119,0.227,0.234,0.456,0.354,0.683c6.311,11.895,13.865,22.795,22.506,32.254c29.972,32.823,60.526,37.98,60.833,38.029  l0.474,0.074l0.456,0.151c0.263,0.086,27.358,8.856,68.566,8.857c40.518,0,80.272-8.169,118.162-24.282  c28.058-14.353,54.634-36.176,67.746-55.639c10.188-15.03,17.555-31.102,21.906-47.783c2.318-8.883,4.125-23.034,3.073-37.989  C450.982,296.755,437.933,304.708,420.261,313.313z"
   style="fill:#ffffff" />
<path
   id="path10"
   d="M276.593,337.985c60.958-8.486,107.256-26.543,135.36-40.165  c23.361-11.323,38.362-21.579,44.175-25.807c-5.773-21.411-21.713-55.027-36.345-75.943c-41.742-59.675-86.766-75.001-109.888-78.82  c-8.829-1.46-15.895-2.306-25.892-2.306c-9.327,0-20.865,0.76-36.312,2.393c-15.485,1.639-32.736,5.691-52.74,12.392  c-28.084,9.407-53.487,24.165-73.465,42.676l-0.667,0.621c-2.975,2.753-9.155,8.475-16.258,17.528  c-0.875,1.221-13.459,19.258-23.51,46.889c-7.54,20.73-7.051,50.95-7.051,51.252v0.085c0,7.049,0.256,14.093,1.035,21.079  c0.013,0.111-0.172,0.223-0.158,0.334c0.099,0.871,0.123,1.739,0.123,2.607c0,0.001,0,0.002,0,0.003  c1,4.923,1.559,9.89,2.553,14.727c0.012,0.003,0.089,0.087,0.101,0.087h0.031C92.258,331.616,179.309,351.527,276.593,337.985z   M360.107,176.675c20.047,0,36.301,16.253,36.301,36.302c0,20.049-16.253,36.3-36.301,36.3c-20.048,0-36.302-16.252-36.302-36.3  C323.805,192.929,340.059,176.675,360.107,176.675z M188.463,175.21c32.402,0,58.67,26.268,58.67,58.668  c0,32.403-26.268,58.669-58.67,58.669c-32.401,0-58.669-26.266-58.669-58.669C129.794,201.477,156.062,175.21,188.463,175.21z   M75.286,313.053c0.623,4.729,1.419,9.505,2.41,14.303C76.703,322.558,75.908,317.782,75.286,313.053z"
   style="fill:#ffffff" />
<g
   id="g12">
</g>
<g
   id="g14">
</g>
<g
   id="g16">
</g>
<g
   id="g18">
</g>
<g
   id="g20">
</g>
<g
   id="g22">
</g>
<g
   id="g24">
</g>
<g
   id="g26">
</g>
<g
   id="g28">
</g>
<g
   id="g30">
</g>
<g
   id="g32">
</g>
<g
   id="g34">
</g>
<g
   id="g36">
</g>
<g
   id="g38">
</g>
<g
   id="g40">
</g>
</svg>
